#N canvas 304 410 450 300 10;
#X obj 137 205 netsend -u -b;
#X msg 158 156 connect localhost 4003;
#X msg 158 179 disconnect;
#X obj 117 83 oscformat test address;
#X obj 127 110 list prepend send;
#X msg 37 28 12 hello world 123;
#X obj 127 132 list trim;
#X connect 1 0 0 0;
#X connect 2 0 0 0;
#X connect 3 0 4 0;
#X connect 4 0 6 0;
#X connect 5 0 3 0;
#X connect 6 0 0 0;
