#N canvas 463 276 501 348 10;
#X obj 97 90 r startup;
#X obj 97 188 oscparse;
#X obj 97 166 netreceive -u -b 0;
#X msg 97 142 listen \$1;
#X obj 97 232 s receives;
#N canvas 2 52 450 300 sends 1;
#X obj 20 20 matrix-osc-send 7001 matrix;
#X obj 20 40 matrix-osc-send 7002 matrix;
#X restore 279 162 pd sends;
#N canvas 567 206 464 364 make 1;
#X obj 116 19 inlet;
#X obj 147 115 list split 1;
#X obj 147 91 list;
#X obj 148 307 s pd-sends;
#X msg 236 274 clear;
#X obj 182 161 1;
#X obj 221 171 + 1;
#X msg 142 251 obj 20 \$2 matrix-osc-send \$1 matrix;
#X obj 182 192 * 20;
#X obj 147 68 t l b;
#X obj 240 108 t b b;
#X msg 241 133 1;
#X obj 147 224 pack f f;
#X obj 147 139 t f b;
#X obj 106 274 t b a;
#X obj 116 41 t b l;
#X msg 33 70 \; init-bang bang;
#X connect 0 0 15 0;
#X connect 1 0 13 0;
#X connect 1 1 2 1;
#X connect 2 0 1 0;
#X connect 4 0 3 0;
#X connect 5 0 6 0;
#X connect 5 0 8 0;
#X connect 6 0 5 1;
#X connect 7 0 14 0;
#X connect 8 0 12 1;
#X connect 9 0 2 0;
#X connect 9 1 10 0;
#X connect 10 0 11 0;
#X connect 10 1 4 0;
#X connect 11 0 5 1;
#X connect 12 0 7 0;
#X connect 13 0 12 0;
#X connect 13 1 5 0;
#X connect 14 0 2 0;
#X connect 14 1 3 0;
#X connect 15 0 16 0;
#X connect 15 1 9 0;
#X restore 193 240 pd make sends;
#X obj 98 117 route port name sends;
#X msg 74 9 \; startup port 7000 \, name matrix \, sends 7001 7002
;
#X connect 0 0 7 0;
#X connect 1 0 4 0;
#X connect 2 0 1 0;
#X connect 3 0 2 0;
#X connect 7 0 3 0;
#X connect 7 2 6 0;
