#N canvas 677 322 648 362 10;
#X msg 28 110 bang;
#X obj 28 154 del 1000;
#X msg 28 176 0;
#X msg 28 198 \; pd dsp \$1;
#X msg 64 177 1;
#X obj 28 132 t b b b;
#X obj 183 206 0;
#X msg 115 169 0;
#X obj 224 209 + 1;
#X obj 177 266 print;
#X obj 234 107 phasor~ 1;
#X msg 310 78 0;
#X msg 307 23 $ 1000;
#X floatatom 139 18 5 0 0 0 - - -, f 5;
#X msg 139 59 1 \$1;
#X obj 139 81 /;
#X obj 139 103 * 1000;
#X obj 139 125 t b f;
#X obj 139 37 t f b f;
#X floatatom 136 154 5 0 0 0 - - -, f 5;
#X obj 326 264 timer;
#X msg 332 231 tempo 1 samp;
#X obj 310 202 t b b;
#X obj 326 286 print timer;
#X obj 215 166 zz~ 0;
#X obj 387 123 zz~;
#X obj 429 58 table;
#X connect 0 0 5 0;
#X connect 1 0 2 0;
#X connect 2 0 3 0;
#X connect 4 0 3 0;
#X connect 5 0 1 0;
#X connect 5 1 4 0;
#X connect 5 2 7 0;
#X connect 6 0 8 0;
#X connect 6 0 9 0;
#X connect 7 0 6 1;
#X connect 8 0 6 1;
#X connect 10 0 24 0;
#X connect 11 0 10 1;
#X connect 13 0 18 0;
#X connect 14 0 15 0;
#X connect 15 0 16 0;
#X connect 16 0 17 0;
#X connect 17 0 5 0;
#X connect 17 1 19 0;
#X connect 18 0 14 0;
#X connect 18 1 11 0;
#X connect 18 2 10 0;
#X connect 20 0 23 0;
#X connect 21 0 20 0;
#X connect 22 0 20 0;
#X connect 22 1 20 1;
#X connect 24 0 6 0;
#X connect 24 0 22 0;
