#N canvas 323 315 380 294 10;
#X obj 148 35 inlet;
#X obj 148 57 list prepend set;
#X obj 148 79 list trim;
#X obj 128 123 list prepend send;
#X obj 128 145 list trim;
#X obj 128 243 netsend -u -b;
#X obj 154 168 loadbang;
#X obj 57 34 inlet;
#X obj 154 190 \$1;
#X msg 154 216 connect localhost \$1;
#X obj 128 101 oscformat \$2;
#X obj 234 162 r init-bang;
#X connect 0 0 1 0;
#X connect 1 0 2 0;
#X connect 2 0 10 0;
#X connect 3 0 4 0;
#X connect 4 0 5 0;
#X connect 6 0 8 0;
#X connect 7 0 10 0;
#X connect 8 0 9 0;
#X connect 9 0 5 0;
#X connect 10 0 3 0;
#X connect 11 0 8 0;
