#N canvas 675 129 606 572 10;
#X obj 76 51 r startup;
#X obj 76 149 oscparse;
#X obj 76 127 netreceive -u -b 0;
#X msg 76 103 listen \$1;
#X obj 282 340 soundfiler;
#N canvas 0 50 450 250 (subpatch) 0;
#X array \$0-sample 25584 float 2;
#X coords 0 1 25584 -1 200 140 1;
#X restore 326 82 graph;
#X obj 282 295 pack symbol \$0;
#X msg 282 319 read -resize \$1 \$2-sample;
#X obj 228 262 route trigger sf;
#X obj 328 364 loadbang;
#X obj 328 386 samplerate~;
#X obj 275 392 / 48;
#X obj 328 408 / 1000;
#X obj 294 466 line~;
#X obj 296 489 *~;
#X obj 282 362 t f f;
#X obj 227 413 f;
#X obj 227 306 t b;
#X obj 296 511 tabread~ \$0-sample;
#X obj 296 533 dac~ 1;
#X obj 77 172 list trim;
#X msg 227 437 0 0 \, 1 \$1;
#X obj 77 194 route matrix;
#X obj 101 218 route time;
#X msg 95 13 \; startup sf bassdrum.wav \, port 7002 \, name sf1 \,
listen time1;
#X obj 77 78 route port name listen;
#X obj 168 172 list prepend symbol;
#X obj 168 194 list trim;
#X msg 452 389 \; pd dsp 1;
#X symbolatom 434 300 10 0 0 0 - - -, f 10;
#X connect 0 0 25 0;
#X connect 1 0 20 0;
#X connect 2 0 1 0;
#X connect 3 0 2 0;
#X connect 4 0 15 0;
#X connect 6 0 7 0;
#X connect 6 0 29 0;
#X connect 7 0 4 0;
#X connect 8 0 17 0;
#X connect 8 1 6 0;
#X connect 9 0 10 0;
#X connect 9 0 28 0;
#X connect 10 0 12 0;
#X connect 11 0 16 1;
#X connect 12 0 11 1;
#X connect 13 0 14 0;
#X connect 14 0 18 0;
#X connect 15 0 11 0;
#X connect 15 1 14 1;
#X connect 16 0 21 0;
#X connect 17 0 16 0;
#X connect 18 0 19 0;
#X connect 20 0 22 0;
#X connect 21 0 13 0;
#X connect 22 0 23 0;
#X connect 23 0 8 0;
#X connect 25 0 3 0;
#X connect 25 2 26 0;
#X connect 25 3 8 0;
#X connect 26 0 27 0;
#X connect 27 0 23 1;
