#N canvas 349 64 930 637 10;
#X obj 206 138 zz~ 1000 pl;
#X obj 206 160 0;
#X obj 206 182 + 1;
#X obj 206 204 t f f;
#X obj 241 177 % 16;
#X obj 539 258 table pitches 16;
#X obj 272 250 tabread pitches;
#X obj 272 272 + 1;
#X obj 304 363 phasor~;
#X obj 304 385 lop~ 300;
#X obj 443 549 dac~;
#X obj 304 438 *~;
#X obj 305 324 *;
#X obj 324 303 r base-pitch;
#X obj 726 170 nbx 5 14 -1e+37 1e+37 0 0 base-pitch base-pitch base-pitch
0 -8 0 10 -257985 -1 -1 0 256;
#X obj 703 158 vsl 15 128 40 400 1 0 base-pitch base-pitch empty 0
-9 0 10 -257985 -1 -1 0 1;
#X obj 322 415 r~ adsr1;
#X obj 148 447 s~ adsr1;
#X msg 148 376 1 20 \, 0 50 20;
#X obj 148 398 vline~;
#X obj 272 294 t b f;
#X floatatom 281 111 5 0 0 0 - - -, f 5;
#X msg 623 56 \; pl 0 0 0.38 0.6;
#X obj 100 69 osc~ 0.2;
#X obj 100 91 *~ 0.2;
#X obj 83 554 delwrite~ buffer 1000;
#X obj 405 421 delread~ buffer 20;
#X obj 279 502 *~ 0.5;
#X floatatom 472 401 5 0 0 0 - - -, f 5;
#X floatatom 338 481 5 0 0 0 - - -, f 5;
#X floatatom 140 36 5 0 0 0 - - -, f 5;
#X floatatom 370 362 5 0 0 0 - - -, f 5;
#X text 104 52 speed modulation;
#X text 241 93 time of one bar;
#X text 645 84 phasenliste;
#X text 81 384 Envelope;
#X text 311 344 oscillator;
#X text 469 386 delaytime;
#X text 329 496 feedback;
#X text 264 404 filter;
#X msg 624 20 \; pl 0 0 0.3 0.5;
#X floatatom 186 36 5 0 0 0 - - -, f 5;
#X text 126 20 depth;
#X text 179 19 speed;
#X obj 466 24 r phasenliste;
#X obj 466 46 t l l;
#X obj 498 70 list length;
#X msg 502 94 \; pl resize \$1;
#X obj 466 126 list prepend 0;
#X obj 466 148 s pl;
#X connect 0 0 1 0;
#X connect 1 0 2 0;
#X connect 2 0 3 0;
#X connect 3 0 6 0;
#X connect 3 1 4 0;
#X connect 4 0 1 1;
#X connect 6 0 7 0;
#X connect 7 0 20 0;
#X connect 8 0 9 0;
#X connect 9 0 11 0;
#X connect 11 0 10 1;
#X connect 11 0 25 0;
#X connect 12 0 8 0;
#X connect 13 0 12 1;
#X connect 16 0 11 1;
#X connect 18 0 19 0;
#X connect 19 0 17 0;
#X connect 20 0 18 0;
#X connect 20 1 12 0;
#X connect 21 0 0 1;
#X connect 23 0 24 0;
#X connect 24 0 0 0;
#X connect 26 0 27 0;
#X connect 27 0 25 0;
#X connect 27 0 10 0;
#X connect 27 0 10 1;
#X connect 28 0 26 0;
#X connect 29 0 27 1;
#X connect 30 0 24 1;
#X connect 31 0 9 1;
#X connect 41 0 23 1;
#X connect 44 0 45 0;
#X connect 45 0 48 0;
#X connect 45 1 46 0;
#X connect 46 0 47 0;
#X connect 48 0 49 0;
