#N canvas 287 380 450 300 10;
#X obj 127 61 inlet;
#X obj 127 83 t l l;
#X obj 259 162 list length;
#X obj 161 240 s \$1;
#X obj 127 163 list prepend 0;
#X msg 259 184 resize \$1;
#X connect 0 0 1 0;
#X connect 1 0 4 0;
#X connect 1 1 2 0;
#X connect 2 0 5 0;
#X connect 4 0 3 0;
#X connect 5 0 3 0;
