#N canvas 326 245 614 401 10;
#X obj 103 72 0;
#X obj 103 94 + 1;
#X obj 103 116 t f f;
#X obj 138 89 % 16;
#X obj 216 93 tabread pitches;
#X obj 216 115 + 1;
#X obj 248 206 phasor~;
#X obj 248 228 lop~ 300;
#X obj 248 281 *~;
#X obj 248 181 *;
#X obj 267 160 r base-pitch;
#X msg 92 219 1 20 \, 0 50 20;
#X obj 92 241 vline~;
#X obj 216 137 t b f;
#X obj 103 50 ../zz~ 1000 pl;
#X obj 104 24 inlet~;
#X obj 91 290 s~ \$0-adsr1;
#X obj 266 258 r~ \$0-adsr1;
#X obj 248 303 outlet~;
#X connect 0 0 1 0;
#X connect 1 0 2 0;
#X connect 2 0 4 0;
#X connect 2 1 3 0;
#X connect 3 0 0 1;
#X connect 4 0 5 0;
#X connect 5 0 13 0;
#X connect 6 0 7 0;
#X connect 7 0 8 0;
#X connect 8 0 18 0;
#X connect 9 0 6 0;
#X connect 10 0 9 1;
#X connect 11 0 12 0;
#X connect 12 0 16 0;
#X connect 13 0 11 0;
#X connect 13 1 9 0;
#X connect 14 0 0 0;
#X connect 15 0 14 0;
#X connect 17 0 8 1;
