#N canvas 291 199 525 504 10;
#X obj 76 51 r startup;
#X obj 201 235 update-pl pl;
#X obj 65 226 zz~ 900 pl;
#X obj 76 149 oscparse;
#X obj 76 127 netreceive -u -b 0;
#X msg 76 103 listen \$1;
#X obj 151 193 route period pl;
#X obj 64 193 adc~ 1;
#X obj 97 255 dac~ 1;
#X obj 143 343 oscformat;
#X obj 289 179 print;
#X obj 142 383 list prepend send;
#X obj 142 408 list trim;
#X obj 191 449 netsend -u -b;
#X obj 220 405 loadbang;
#X msg 153 317 set \$1;
#X obj 77 78 route port name;
#X obj 153 297 list trim;
#X obj 153 277 list prepend symbol;
#X msg 71 19 \; startup period 1000 \, pl 0 0.2 0.5 0.6 \, port 7000
\, name time1;
#X msg 220 425 connect localhost 7000;
#X connect 0 0 16 0;
#X connect 2 0 9 0;
#X connect 2 1 8 0;
#X connect 3 0 6 0;
#X connect 3 0 10 0;
#X connect 4 0 3 0;
#X connect 5 0 4 0;
#X connect 6 0 2 1;
#X connect 6 1 1 0;
#X connect 7 0 2 0;
#X connect 9 0 11 0;
#X connect 11 0 12 0;
#X connect 12 0 13 0;
#X connect 14 0 20 0;
#X connect 15 0 9 0;
#X connect 16 0 5 0;
#X connect 16 1 18 0;
#X connect 16 2 6 0;
#X connect 17 0 15 0;
#X connect 18 0 17 0;
#X connect 20 0 13 0;
