#N canvas 139 362 450 300 10;
#X obj 197 105 route time pl;
#X obj 197 77 r startup;
#X obj 102 130 zz~ 1000 \$0-pl;
#X obj 241 130 t l l;
#X obj 241 208 send \$0-pl;
#X obj 273 152 list length;
#X msg 273 174 \; pl resize \$1;
#X obj 101 39 adc~ 1;
#X connect 0 0 2 1;
#X connect 0 1 3 0;
#X connect 1 0 0 0;
#X connect 3 0 4 0;
#X connect 3 1 5 0;
#X connect 5 0 6 0;
#X connect 7 0 2 0;
