#N canvas 807 216 525 504 10;
#X obj 77 56 r startup;
#X obj 239 306 update-pl pl;
#X obj 77 293 zz~ 900 pl;
#X obj 77 149 oscparse;
#X obj 77 127 netreceive -u -b 0;
#X msg 77 103 listen \$1;
#X obj 74 264 adc~ 1;
#X obj 107 326 dac~ 1;
#X obj 101 375 t f b;
#X obj 101 459 org-oscsend 7000;
#X obj 210 437 list prepend;
#X obj 185 411 list prepend trigger;
#X obj 198 387 list prepend sync;
#X obj 176 337 t b b;
#X msg 151 360 0;
#X msg 177 307 bang;
#X obj 45 409 print;
#X msg 370 283 \; pd dsp 1;
#X obj 368 214 loadbang;
#X msg 56 7 \; startup period 1000 \, pl 0 0.2 0.5 0.6 \, port 7001
\, name time1 \, listen time;
#X obj 77 78 route port name listen;
#X obj 237 177 list prepend symbol;
#X obj 237 199 list trim;
#X obj 77 171 list trim;
#X obj 77 193 route matrix;
#X obj 171 226 route time;
#X obj 186 253 route period pl sync;
#X msg 270 274 sync bang;
#X connect 0 0 20 0;
#X connect 2 0 8 0;
#X connect 2 2 13 0;
#X connect 3 0 23 0;
#X connect 4 0 3 0;
#X connect 5 0 4 0;
#X connect 8 0 9 0;
#X connect 8 1 11 0;
#X connect 10 0 9 1;
#X connect 11 0 10 0;
#X connect 12 0 10 0;
#X connect 13 0 14 0;
#X connect 13 1 12 0;
#X connect 14 0 9 0;
#X connect 15 0 13 0;
#X connect 18 0 17 0;
#X connect 20 0 5 0;
#X connect 20 1 10 1;
#X connect 20 2 21 0;
#X connect 20 3 26 0;
#X connect 21 0 22 0;
#X connect 22 0 25 1;
#X connect 23 0 24 0;
#X connect 24 0 25 0;
#X connect 25 0 26 0;
#X connect 26 0 2 1;
#X connect 26 1 1 0;
#X connect 26 2 27 0;
#X connect 27 0 2 1;
