#N canvas 193 351 450 300 10;
#X obj 197 105 route time pl;
#X obj 197 77 r startup;
#X obj 102 130 zz~ 1000 \$0-pl;
#X obj 241 130 t l l;
#X obj 241 259 send \$0-pl;
#X obj 273 152 list length;
#X obj 101 39 adc~ 1;
#X obj 273 175 pack f \$0;
#X msg 273 199 \; \$2-pl resize \$1;
#X obj 241 237 list prepend 0;
#X connect 0 0 2 1;
#X connect 0 1 3 0;
#X connect 1 0 0 0;
#X connect 3 0 9 0;
#X connect 3 1 5 0;
#X connect 5 0 7 0;
#X connect 6 0 2 0;
#X connect 7 0 8 0;
#X connect 9 0 4 0;
