#N canvas 873 74 364 641 10;
#X obj 84 251 table \$2 2;
#X obj 34 251 tt~ \$2;
#X obj 112 55 inlet;
#X msg 112 99 1000 \$1;
#X obj 112 124 /;
#X msg 181 100 \$1 60;
#X obj 32 48 inlet~;
#X obj 52 196 phasor~;
#X obj 161 33 loadbang;
#X obj 161 55 f \$1;
#X obj 33 224 +~;
#X obj 61 554 outlet;
#X obj 182 250 outlet~;
#X text 85 130 Hz;
#X obj 34 276 t f f;
#X obj 16 390 tabread \$2;
#X obj 16 299 + 1;
#X obj 34 344 array size \$2;
#X obj 16 367 mod;
#X obj 16 323 t f b;
#X obj 132 384 tabread \$2;
#X obj 150 338 array size \$2;
#X obj 132 361 mod;
#X obj 132 317 t f b;
#X obj 47 448 -;
#X obj 61 528 *;
#X msg 110 428 1 \$1;
#X obj 110 448 /;
#X obj 110 470 * 1000;
#X text 65 596 (c) 2016 Dominik Schmidt-Philipp;
#X obj 47 470 moses 0;
#X obj 46 496 + 1;
#X text 8 5 Zeit Zähler - part of orgScore;
#X obj 241 283 outlet;
#X obj 112 147 t f f b;
#X msg 158 168 0;
#X obj 228 134 t b;
#X obj 112 77 route float ms bpm Hz sync bang;
#X connect 1 0 14 0;
#X connect 1 1 33 0;
#X connect 2 0 37 0;
#X connect 3 0 4 0;
#X connect 4 0 34 0;
#X connect 5 0 4 0;
#X connect 6 0 10 0;
#X connect 7 0 10 1;
#X connect 8 0 9 0;
#X connect 9 0 37 0;
#X connect 10 0 1 0;
#X connect 10 0 12 0;
#X connect 14 0 16 0;
#X connect 14 1 23 0;
#X connect 15 0 24 0;
#X connect 16 0 19 0;
#X connect 17 0 18 1;
#X connect 18 0 15 0;
#X connect 19 0 18 0;
#X connect 19 1 17 0;
#X connect 20 0 24 1;
#X connect 21 0 22 1;
#X connect 22 0 20 0;
#X connect 23 0 22 0;
#X connect 23 1 21 0;
#X connect 24 0 30 0;
#X connect 25 0 11 0;
#X connect 26 0 27 0;
#X connect 27 0 28 0;
#X connect 28 0 25 1;
#X connect 30 0 31 0;
#X connect 30 1 25 0;
#X connect 31 0 25 0;
#X connect 34 0 7 0;
#X connect 34 1 26 0;
#X connect 34 2 35 0;
#X connect 35 0 7 1;
#X connect 36 0 35 0;
#X connect 37 0 3 0;
#X connect 37 1 3 0;
#X connect 37 2 5 0;
#X connect 37 4 36 0;
#X connect 37 5 36 0;
