#N canvas 632 265 456 379 10;
#X obj 221 217 table \$2 2;
#X obj 171 217 tt~ \$2;
#X obj 189 58 inlet;
#X obj 189 80 route float ms bpm Hz;
#X msg 189 102 1000 \$1;
#X obj 189 133 /;
#X msg 258 103 \$1 60;
#X obj 169 24 inlet~;
#X obj 189 162 phasor~;
#X obj 238 36 loadbang;
#X obj 238 58 f \$1;
#X obj 170 190 +~;
#X obj 171 245 outlet;
#X connect 1 0 12 0;
#X connect 2 0 3 0;
#X connect 3 0 4 0;
#X connect 3 1 4 0;
#X connect 3 2 6 0;
#X connect 4 0 5 0;
#X connect 5 0 8 0;
#X connect 6 0 5 0;
#X connect 7 0 11 0;
#X connect 8 0 11 1;
#X connect 9 0 10 0;
#X connect 10 0 3 0;
#X connect 11 0 1 0;
