#N canvas 162 321 705 343 10;
#X obj 484 116 table pl-1 4;
#X obj 80 172 noise~;
#X obj 139 230 *~;
#X msg 167 167 1 20 \, 0 40 20;
#X obj 166 196 vline~;
#X obj 139 252 dac~;
#X msg 484 84 \; pl-1 0 0 0.3333 0.5 0.75;
#X msg 486 171 \; pl-2 0 0 0.5;
#X obj 486 204 table pl-2 2;
#X obj 218 113 zz 1000 pl-2;
#X msg 189 24 4000;
#X obj 160 61 zz 1000 pl-1;
#X msg 402 30 \; update bang;
#X floatatom 123 20 5 0 0 0 - - -, f 5;
#X connect 1 0 2 0;
#X connect 2 0 5 0;
#X connect 3 0 4 0;
#X connect 4 0 2 1;
#X connect 9 0 3 0;
#X connect 10 0 11 0;
#X connect 11 1 9 0;
#X connect 13 0 11 0;
