#N canvas 177 287 430 410 10;
#X obj 137 139 tabread \$1;
#X obj 137 53 until;
#X obj 137 79 0;
#X msg 248 55 0;
#X obj 195 79 + 1;
#X obj 155 208 -999;
#X msg 291 54 -999;
#X obj 137 28 t b b b;
#X text 273 31 init;
#X obj 137 234 ==;
#X obj 137 165 t f f b;
#X obj 186 288 i;
#X obj 137 256 select 1;
#X obj 186 309 t f b;
#X floatatom 214 330 5 0 0 0 - - -, f 5;
#X obj 137 101 t f f f;
#X obj 186 349 outlet;
#X obj 137 6 inlet;
#X connect 0 0 10 0;
#X connect 1 0 2 0;
#X connect 2 0 15 0;
#X connect 3 0 2 1;
#X connect 4 0 2 1;
#X connect 5 0 9 1;
#X connect 6 0 5 1;
#X connect 7 0 1 0;
#X connect 7 1 3 0;
#X connect 7 2 6 0;
#X connect 9 0 12 0;
#X connect 10 0 9 0;
#X connect 10 1 5 1;
#X connect 10 2 5 0;
#X connect 11 0 13 0;
#X connect 12 0 11 0;
#X connect 13 0 14 0;
#X connect 13 0 16 0;
#X connect 13 1 1 1;
#X connect 15 0 0 0;
#X connect 15 1 4 0;
#X connect 15 2 11 1;
#X connect 17 0 7 0;
