#N canvas 630 174 485 468 10;
#X obj 108 431 outlet;
#X obj 296 9 loadbang;
#X obj 367 134 inlet;
#X obj 173 166 tabread \$2;
#X obj 191 95 tablesize \$2;
#X text 8 4 depends on: tablesize;
#X obj 173 119 mod;
#X obj 191 73 r update;
#X obj 411 112 r init;
#X obj 173 212 *;
#X obj 397 184 s \$0-time;
#X obj 191 191 r \$0-time;
#X msg 66 40 bang;
#X floatatom 237 234 5 0 0 0 - - -, f 5;
#X obj 126 88 0;
#X obj 144 65 + 1;
#X msg 400 73 bang;
#X obj 411 134 i \$1;
#X obj 155 305 0;
#X obj 173 234 t f f;
#X obj 123 282 t f b;
#X obj 123 331 -;
#X obj 219 260 select 0;
#X obj 173 141 t f f f;
#X obj 123 354 + 0;
#X obj 219 306 i;
#X obj 237 283 r \$0-time;
#X obj 272 306 t b;
#X msg 272 328 0;
#X obj 169 400 del;
#X obj 123 376 t b f f;
#X obj 168 431 outlet;
#X obj 397 162 t f b;
#X obj 117 29 r start;
#X obj 392 285 t b b;
#X msg 375 322 stop;
#X msg 343 309 0;
#X obj 296 31 t b b b;
#X connect 1 0 37 0;
#X connect 2 0 32 0;
#X connect 3 0 9 0;
#X connect 4 0 6 1;
#X connect 6 0 23 0;
#X connect 7 0 4 0;
#X connect 8 0 17 0;
#X connect 9 0 13 0;
#X connect 9 0 19 0;
#X connect 11 0 9 1;
#X connect 12 0 14 0;
#X connect 14 0 6 0;
#X connect 15 0 14 1;
#X connect 16 0 17 0;
#X connect 17 0 32 0;
#X connect 18 0 21 1;
#X connect 19 0 18 1;
#X connect 19 1 20 0;
#X connect 20 0 21 0;
#X connect 20 1 18 0;
#X connect 21 0 24 0;
#X connect 22 0 25 0;
#X connect 22 1 27 0;
#X connect 23 0 3 0;
#X connect 23 1 15 0;
#X connect 23 2 22 0;
#X connect 24 0 30 0;
#X connect 25 0 24 1;
#X connect 26 0 25 1;
#X connect 27 0 28 0;
#X connect 28 0 24 1;
#X connect 29 0 14 0;
#X connect 30 0 0 0;
#X connect 30 1 31 0;
#X connect 30 2 29 0;
#X connect 32 0 10 0;
#X connect 32 1 34 0;
#X connect 33 0 14 0;
#X connect 34 0 36 0;
#X connect 34 1 35 0;
#X connect 35 0 29 0;
#X connect 36 0 14 0;
#X connect 37 0 14 0;
#X connect 37 1 4 0;
#X connect 37 2 17 0;
